<?xml version="1.0" encoding="UTF-8"?>
<svg width="16px" height="16px" viewBox="0 0 16 16" version="1.1" xmlns="http://www.w3.org/2000/svg" xmlns:xlink="http://www.w3.org/1999/xlink">
    <!-- Generator: sketchtool 51 (57462) - http://www.bohemiancoding.com/sketch -->
    <title>66BF714E-9299-42F4-ABBB-7EEEDC6F8086</title>
    <desc>Created with sketchtool.</desc>
    <defs></defs>
    <g id="Page-1" stroke="none" stroke-width="1" fill="none" fill-rule="evenodd">
        <g id="03" transform="translate(-190.000000, -92.000000)">
            <rect fill="#FFFFFF" x="0" y="0" width="360" height="640"></rect>
            <g id="Group-6" fill="#CBCBCB">
                <g id="Group-2" transform="translate(8.000000, 80.000000)">
                    <path d="M190,12 C185.576,12 182,15.576 182,20 C182,24.424 185.576,28 190,28 C194.424,28 198,24.424 198,20 C198,15.576 194.424,12 190,12 L190,12 Z M194,22.872 L192.872,24 L190,21.128 L187.128,24 L186,22.872 L188.872,20 L186,17.128 L187.128,16 L190,18.872 L192.872,16 L194,17.128 L191.128,20 L194,22.872 L194,22.872 Z" id="Fill-209"></path>
                </g>
            </g>
        </g>
    </g>
</svg>