<?xml version="1.0" encoding="UTF-8"?>
<svg width="16px" height="16px" viewBox="0 0 16 16" version="1.1" xmlns="http://www.w3.org/2000/svg" xmlns:xlink="http://www.w3.org/1999/xlink">
    <!-- Generator: sketchtool 51 (57462) - http://www.bohemiancoding.com/sketch -->
    <title>2A794F98-9026-4341-A220-D57EF80D5DA8</title>
    <desc>Created with sketchtool.</desc>
    <defs></defs>
    <g id="Page-1" stroke="none" stroke-width="1" fill="none" fill-rule="evenodd">
        <g id="03" transform="translate(-321.000000, -601.000000)">
            <rect fill="#FFFFFF" x="0" y="0" width="360" height="640"></rect>
            <g id="Group-Copy-2" transform="translate(314.000000, 594.000000)" fill="#4A4A4A">
                <path d="M15,12.0909091 C13.3927273,12.0909091 12.0909091,13.3927273 12.0909091,15 C12.0909091,16.6072727 13.3927273,17.9090909 15,17.9090909 C16.6072727,17.9090909 17.9090909,16.6072727 17.9090909,15 C17.9090909,13.3927273 16.6072727,12.0909091 15,12.0909091 L15,12.0909091 Z M21.5018182,14.2727273 C21.1672727,11.24 18.76,8.83272727 15.7272727,8.49818182 L15.7272727,7 L14.2727273,7 L14.2727273,8.49818182 C11.24,8.83272727 8.83272727,11.24 8.49818182,14.2727273 L7,14.2727273 L7,15.7272727 L8.49818182,15.7272727 C8.83272727,18.76 11.24,21.1672727 14.2727273,21.5018182 L14.2727273,23 L15.7272727,23 L15.7272727,21.5018182 C18.76,21.1672727 21.1672727,18.76 21.5018182,15.7272727 L23,15.7272727 L23,14.2727273 L21.5018182,14.2727273 L21.5018182,14.2727273 Z M15,20.0909091 C12.1854545,20.0909091 9.90909091,17.8145455 9.90909091,15 C9.90909091,12.1854545 12.1854545,9.90909091 15,9.90909091 C17.8145455,9.90909091 20.0909091,12.1854545 20.0909091,15 C20.0909091,17.8145455 17.8145455,20.0909091 15,20.0909091 L15,20.0909091 Z" id="Shape"></path>
            </g>
        </g>
    </g>
</svg>