<?xml version="1.0" encoding="UTF-8"?>
<svg width="48px" height="58px" viewBox="0 0 48 58" version="1.1" xmlns="http://www.w3.org/2000/svg" xmlns:xlink="http://www.w3.org/1999/xlink">
    <!-- Generator: sketchtool 51 (57462) - http://www.bohemiancoding.com/sketch -->
    <title>1A707D5E-C4AE-4448-AEB6-80EDF90B01CC</title>
    <desc>Created with sketchtool.</desc>
    <defs>
        <path d="M19,48 C31.6666667,35.6622735 38,25.9956068 38,19 C38,8.50658975 29.4934102,0 19,0 C8.50658975,0 0,8.50658975 0,19 C0,25.9956068 6.33333333,35.6622735 19,48 Z" id="path-1"></path>
        <filter x="-21.1%" y="-12.5%" width="142.1%" height="133.3%" filterUnits="objectBoundingBox" id="filter-2">
            <feMorphology radius="1" operator="dilate" in="SourceAlpha" result="shadowSpreadOuter1"></feMorphology>
            <feOffset dx="0" dy="2" in="shadowSpreadOuter1" result="shadowOffsetOuter1"></feOffset>
            <feGaussianBlur stdDeviation="2" in="shadowOffsetOuter1" result="shadowBlurOuter1"></feGaussianBlur>
            <feComposite in="shadowBlurOuter1" in2="SourceAlpha" operator="out" result="shadowBlurOuter1"></feComposite>
            <feColorMatrix values="0 0 0 0 0   0 0 0 0 0   0 0 0 0 0  0 0 0 0.5 0" type="matrix" in="shadowBlurOuter1"></feColorMatrix>
        </filter>
        <filter x="-18.8%" y="-100.0%" width="137.5%" height="300.0%" filterUnits="objectBoundingBox" id="filter-3">
            <feGaussianBlur stdDeviation="1" in="SourceGraphic"></feGaussianBlur>
        </filter>
    </defs>
    <g id="Page-1" stroke="none" stroke-width="1" fill="none" fill-rule="evenodd">
        <g id="02" transform="translate(-236.000000, -298.000000)">
            <g id="Group-9" transform="translate(241.000000, 301.000000)">
                <g id="Oval">
                    <use fill="black" fill-opacity="1" filter="url(#filter-2)" xlink:href="#path-1"></use>
                    <use stroke="#F78600" stroke-width="2" fill="#FFFFFF" fill-rule="evenodd" xlink:href="#path-1"></use>
                </g>
                <path d="M26.6957279,11 L24.4545312,11 L24.4545312,11.8617852 C24.4545312,11.9695924 24.36043,12.0571833 24.2440191,12.0571833 L23.7561515,12.0571833 C23.639698,12.0571833 23.5455114,11.9695529 23.5455114,11.8617852 L23.5455114,11 L21.3044427,11 C21.1363743,11 21,11.1264015 21,11.2822769 L21,15.7177231 C21,15.8737172 21.1363743,16 21.3044427,16 L26.6957279,16 C26.8637537,16 27,15.8737568 27,15.7177231 L27,11.2822373 C27,11.1264015 26.8637537,11 26.6957279,11 Z" id="Shape" fill="#F78600" fill-rule="nonzero"></path>
                <path d="M23.4633878,27.2513534 C22.1607755,27.2513534 21.1009796,26.113712 21.1009796,24.715048 C21.1009796,23.3163839 22.1607755,22.1786549 23.4633878,22.1786549 C24.7663265,22.1786549 25.8262041,23.3163839 25.8262041,24.715048 C25.8262041,26.113712 24.7662857,27.2513534 23.4633878,27.2513534 Z M23.4633878,23.45682 C22.8172653,23.45682 22.2913469,24.0213246 22.2913469,24.715048 C22.2913469,25.4086837 22.8172653,25.9733636 23.4633878,25.9733636 C24.1097143,25.9733636 24.6355102,25.4086837 24.6355102,24.715048 C24.6354694,24.0213246 24.1097143,23.45682 23.4633878,23.45682 Z" id="Shape" fill="#F78600" fill-rule="nonzero"></path>
                <path d="M10.3625714,27.2513534 C9.05991837,27.2513534 8,26.113712 8,24.715048 C8,23.3163839 9.05991837,22.1786549 10.3625714,22.1786549 C11.6652653,22.1786549 12.7251429,23.3163839 12.7251429,24.715048 C12.7251429,26.113712 11.6652653,27.2513534 10.3625714,27.2513534 Z M10.3625714,23.45682 C9.71628571,23.45682 9.1904898,24.0213246 9.1904898,24.715048 C9.1904898,25.4086837 9.71628571,25.9733636 10.3625714,25.9733636 C11.008898,25.9733636 11.5346531,25.4086837 11.5346531,24.715048 C11.5346531,24.0213246 11.008898,23.45682 10.3625714,23.45682 Z" id="Shape" fill="#F78600" fill-rule="nonzero"></path>
                <path d="M24.5917143,19.7513681 L24.5917143,19.0562864 L26.2385714,19.0562864 C26.6112245,19.0562864 26.9133878,18.73221 26.9133878,18.3321973 L26.9133878,17.8166371 C26.9133878,17.4167997 26.6112245,17.092548 26.2385714,17.092548 L17.9844898,17.092548 C17.6118776,17.092548 17.3097143,17.4167997 17.3097143,17.8166371 L17.3097143,18.3398654 C17.3097143,18.7397904 17.6118776,19.0640421 17.9844898,19.0640421 L18.897102,19.0640421 L18.897102,21.8473923 L14.3246531,21.8473923 C13.9896735,21.2865684 13.550449,20.8042221 13.0365306,20.4315079 L14.8351429,13.4678962 L16.4974286,13.4678962 C16.8700408,13.4678962 17.172,13.1434692 17.172,12.7435442 C17.172,12.3437068 16.8700408,12.0194551 16.4974286,12.0194551 C16.4974286,12.0194551 14.7485306,12.0194551 14.1346531,12.0194551 C14.0506531,12.0194551 13.9042449,12.0572699 13.8324898,12.0952599 C13.7284898,12.1509085 13.6376735,12.234951 13.5713878,12.3418226 L8.78481633,20.0455169 C8.64220408,20.2712662 8.53697959,20.5548112 8.61571429,20.8038715 C8.738,21.1908703 9.15146939,21.3293345 9.57502041,21.1944634 C9.89673469,21.092105 10.1637551,21.0472794 10.5032653,21.0472794 C12.2607347,21.0472794 13.6905306,22.5822606 13.6905306,24.469011 C13.6905306,24.8690237 13.9924082,25.193363 14.3650204,25.193363 L19.6016327,25.193363 C19.9742449,25.193363 20.2763673,24.8690237 20.2763673,24.469011 C20.2763673,22.5822606 21.7059592,21.0472794 23.4633878,21.0472794 C25.2208163,21.0472794 26.6507347,22.5822606 26.6507347,24.469011 C26.6507347,24.8690237 26.9529388,25.193363 27.3253061,25.193363 C27.6980816,25.193363 28,24.8690237 28,24.469011 C28,22.2015716 26.5489796,20.2911595 24.5917143,19.7513681 Z" id="Shape" fill="#F78600" fill-rule="nonzero"></path>
                <ellipse id="Oval-2" fill-opacity="0.5" fill="#000000" filter="url(#filter-3)" cx="19" cy="49.5" rx="8" ry="1.5"></ellipse>
            </g>
        </g>
    </g>
</svg>