<?xml version="1.0" encoding="UTF-8"?>
<svg width="16px" height="16px" viewBox="0 0 16 16" version="1.1" xmlns="http://www.w3.org/2000/svg" xmlns:xlink="http://www.w3.org/1999/xlink">
    <!-- Generator: sketchtool 51 (57462) - http://www.bohemiancoding.com/sketch -->
    <title>59BA60DA-D4ED-4CED-9E3E-BD591C7F66E5</title>
    <desc>Created with sketchtool.</desc>
    <defs></defs>
    <g id="Page-1" stroke="none" stroke-width="1" fill="none" fill-rule="evenodd">
        <g id="02" transform="translate(-24.000000, -92.000000)" fill="#9B9B9B">
            <g id="Group-6">
                <g id="Group-2" transform="translate(8.000000, 80.000000)">
                    <path d="M27.4351058,22.0628931 L26.7124071,22.0628931 L26.4562607,21.8158948 C27.352773,20.7730132 27.89251,19.4190966 27.89251,17.946255 C27.89251,14.6620926 25.2304174,12 21.946255,12 C18.6620926,12 16,14.6620926 16,17.946255 C16,21.2304174 18.6620926,23.8920526 21.946255,23.8920526 C23.4190966,23.8920526 24.7730132,23.352773 25.8158948,22.4558033 L26.0628931,22.7124071 L26.0628931,23.4351058 L30.6369354,27.9995426 L32,26.636478 L27.4351058,22.0628931 L27.4351058,22.0628931 Z M21.946255,22.0628931 C19.6683819,22.0628931 17.8296169,20.2241281 17.8296169,17.946255 C17.8296169,15.6683819 19.6683819,13.8296169 21.946255,13.8296169 C24.2241281,13.8296169 26.0628931,15.6683819 26.0628931,17.946255 C26.0628931,20.2241281 24.2241281,22.0628931 21.946255,22.0628931 L21.946255,22.0628931 Z" id="Fill-91"></path>
                </g>
            </g>
        </g>
    </g>
</svg>